<?xml version="1.0" encoding="UTF-8"?>
<svg width="32px" height="32px" viewBox="0 0 32 32" version="1.1" xmlns="http://www.w3.org/2000/svg" xmlns:xlink="http://www.w3.org/1999/xlink">
    <!-- Generator: Sketch 61.2 (89653) - https://sketch.com -->
    <title>Youtube</title>
    <desc>Created with Sketch.</desc>
    <g id="Symbols" stroke="none" stroke-width="1" fill="none" fill-rule="evenodd">
        <g id="Group-11" transform="translate(-1336.000000, -149.000000)">
            <g id="Group-25">
                <g transform="translate(1294.000000, 69.000000)">
                    <g id="Youtube" transform="translate(42.000000, 80.000000)">
                        <path d="M0,16 C0,7.16344357 7.16344357,0 16,0 C24.8365564,0 32,7.16344357 32,16 C32,24.8365564 24.8365564,32 16,32 C7.16344357,32 0,24.8365564 0,16 Z" id="back" fill="#FF0000"></path>
                        <path d="M16.1848475,9.99883263 C17.1365244,10.0027648 21.4847892,10.0381547 22.6677333,10.3566634 C23.4020848,10.5538277 23.9804121,11.1347705 24.1766788,11.8725156 C24.4951203,13.0663355 24.5292391,15.4182741 24.5328947,15.9085564 L24.5328947,16.0902732 C24.5292391,16.5805399 24.4951203,18.9324106 24.1766788,20.1263169 C23.9804121,20.864062 23.4020848,21.4450048 22.6677333,21.6422659 C21.4847892,21.9606886 17.1365244,21.9960689 16.1848475,22 L15.8151523,22 C14.8634744,21.9960689 10.5152,21.9606886 9.3321697,21.6422659 C8.59781818,21.4450048 8.01949091,20.864062 7.82322424,20.1263169 C7.46666667,18.7891419 7.46666667,15.9994162 7.46666667,15.9994162 L7.46668291,15.9889342 C7.46712146,15.8019962 7.47940087,13.161841 7.82322424,11.8725156 C8.01949091,11.1347705 8.59781818,10.5538277 9.3321697,10.3566634 C10.5152,10.0381547 14.8634744,10.0027648 15.8151523,9.99883263 Z M14.4,13.6511695 L14.4,18.8694957 L18.6666667,16.2604323 L14.4,13.6511695 Z" id="Combined-Shape" fill="#FFFFFF"></path>
                    </g>
                </g>
            </g>
        </g>
    </g>
</svg>